<svg width="480" height="282" viewBox="0 0 480 282" fill="none" xmlns="http://www.w3.org/2000/svg"><path d="M125.486 216.454c9.144-15.621 21.241-29.432 35.338-40.814 14.144-11.382 30.337-20.24 47.624-25.717 17.098-5.477 35.195-7.525 53.102-5.763 17.954 1.762 35.528 7.144 51.387 15.669 15.764 8.477 29.861 20.145 40.767 34.337 1.333 1.762 2.619 3.572 3.905 5.382.238.333.714 0 .524-.286-10.144-14.859-23.574-27.289-38.957-36.576-15.478-9.382-32.861-15.621-50.768-18.288a131.681 131.681 0 00-53.673 3.096c-17.574 4.715-34.242 12.858-48.911 23.622-14.62 10.763-27.384 24.098-37.29 39.338-1.238 1.857-2.381 3.762-3.524 5.715-.238.333.286.619.476.285z" fill="#1D2C22"/><path d="M255.428 126.966l-77.143-34.324-15.255 34.285 77.143 34.325 15.255-34.286z" fill="#D15245"/><path d="M280.982 125.491c0 .905 0 1.763-.048 2.667-1.048-2.857-5.572-3.667-6.906-.904-.095-.048-.19-.048-.333-.096-.524-3.095-4.715-3.619-6.667-1.381a3.33 3.33 0 00-1.191-1.095c-.953-.572-2.334-.667-3.429-.238-1.524-1.715-4.429-2.001-6.096.476-.762 1.191-1.524 2.381-2.238 3.619.381-.904.714-1.809 1.047-2.762.572-1.524-1.905-2.191-2.428-.667-3.239 8.859-8.097 17.098-14.383 24.194-6.287 7.048-14.526 11.906-20.86 18.811-.047 0-.047 0-.095.048-.286.381-.619.762-.905 1.143-13.525 13.144-17.24 53.911-20.907 75.723h31.289c2.572-7.382 7.858-44.815 11.002-52.006 10.096-8.953 22.478-15.192 32.575-24.288 2.572-2.286 5.143-4.668 7.048-7.62 2.001-3.096 3.048-6.715 3.715-10.287 1.572-8.335 2.238-16.859 2.286-25.289.048-1.667-2.476-1.667-2.476-.048z" fill="#F0624E"/><path d="M271.649 126.063c-.762 10.572-1.667 21.716-6.906 31.194-2.619 4.762-6.381 8.62-10.763 11.763-4.381 3.191-9.144 5.715-13.668 8.62-1.81 1.191-3.667 2.334-5.287 3.81a29.226 29.226 0 00-3.286 3.572c-2.286 2.953-4.095 6.239-5.667 9.572-3.667 7.858-6.048 16.288-7.906 24.718-1.667 7.667-2.952 15.525-3.476 23.336l-.143 2.286c0 .381.571.381.571 0 .334-7.573 1.477-15.145 3.001-22.574 1.714-8.573 4-17.145 7.477-25.242 1.524-3.524 3.286-7 5.477-10.191a36.115 36.115 0 013.19-3.953c1.286-1.334 2.763-2.429 4.287-3.477 8.715-5.953 18.954-10.287 25.098-19.335 6.001-8.811 7.477-19.812 8.334-30.147.095-1.333.191-2.667.334-4-.048-.333-.667-.333-.667.048z" fill="#1D2C22"/><path d="M264.839 130.682c.476 3.239 2.667 6.096 5.572 7.477.333.143.667-.333.286-.523-2.81-1.334-4.858-4.049-5.334-7.096-.048-.429-.619-.239-.524.142z" fill="#1D2C22"/><path d="M304.031 115.394c-.858-7.239-3.525-14.62-5.715-21.574-.143-.38-.715-.238-.62.191 0 .048 0 .048.048.095-.286-.333-.571-.666-.905-.952-1.619-1.381-4.762-1.429-5.953.476-1.238-.19-2.572.238-3.524 1.19-1-.428-2.238-.38-3.334.096a3.52 3.52 0 00-1 0c-1.095.143-1.905.667-2.476 1.429-2.382-.334-5.144 1.571-4.43 4.667a447.152 447.152 0 001.81 7.62c.429 1.714.857 3.524 1.619 5.143v.048c.096.524.334.952.667 1.381a11.972 11.972 0 00.476 3.81c.334 1.143 1.143 1.905 2.048 2.334 1.048 1.809 2.572 3 5.001 2.333.667-.19 1.238-.476 1.667-.857.143.095.238.19.381.286 1.429 1 3.572.523 4.762-.715.476.048 1 0 1.524-.143 1.667-.476 2.524-1.619 2.953-3 .81-.333 1.476-.952 1.953-1.714.333-.239.619-.477.857-.81a3.541 3.541 0 001.381-2.143c.429 2.524.429 5.143-.953 7.382-1.666 2.667-4.762 4.476-7.572 5.762-.381.191-.048.715.333.572 5.525-2.667 9.764-6.477 9.002-12.907z" fill="#FAB88E"/><path d="M283.171 116.633c-.666-5.096-1.333-10.239-2.905-15.145-.285-.238-.19-.857.286-.857 3.381 0 7.001-.381 10.144-1.62 1.572-.57 3.143-1.333 4.62-2.095.714-.38 1.333-.762 2.048-1.143.523-.333 1.809-1.714 1.762-1.762-3.001-10.715-4.096-23.002-12.288-31.337-6.619-6.715-16.954-8.763-25.717-5.524-.619.238-.524 1.047-.047 1.238-.667.333-1.334.667-1.953 1.095-3.143-1.476-6.715-2.238-10.001-2.714-.048.143-.096.333-.143.476a.732.732 0 01-.334.476c1.239.238 2.477.572 3.715 1 .905.334.524 1.81-.428 1.477-4.858-1.667-10.097-2.048-14.955-.048-4.81 1.953-7.953 5.953-10.525 10.335-2.476 4.143-4.762 8.477-7.143 12.668a152.51 152.51 0 00-2.096 3.857c-.143 2.048-.19 4.144-.095 6.144.048 1.095 1.191 1.476 1.953 1.048v1.095c0 .334.047.667.095.953v.095c.143 3.143 4.191 4.667 6.286 3.19.667 2.715 1.572 5.239 4.144 6.906.952.619 2.428.667 3.524.191.571 1.952 1.524 3.715 3.191 4.667 1.667.953 3.905.476 5-1.048.477 2.001 1.048 4.239 2.715 5.525 1.143.905 2.619 1.143 3.905.809.286.667.572 1.286.953 1.953-.572.81-.715 1.714-.572 2.619a3.843 3.843 0 00-1.429 2.953c-2.428 1.095-3.143 5.001-.714 6.667a177.193 177.193 0 0019.478 1.096c6.716 0 13.097-1.286 19.479-2.858a3.384 3.384 0 00-.429-1.333c-.524-3.762-1.047-7.382-1.524-11.049z" fill="url(#paint0_linear)"/><path d="M250.786 61.198c.095.142.143.333.191.523 1.857.81 3.952 1.048 6.096.858.333-.048.428 0 .762-.096 2.857-.38 5.667-1.428 8-2.857-.666-2.905-1.238-5.858-1.619-8.858 1.334-.334 2.524-.953 3.477-2.048 1.333-1.572 1.905-3.905 1.619-5.953-.619-3.858-4.381-5.953-7.906-5.096-.19-.81-.381-1.572-.571-2.381-.143-.572-.572-.857-1.095-.905-.096-.095-.239-.19-.334-.286-2.095-1.476-5.334-1.524-7.667-.81-2.81.905-5.096 2.81-8.001 3.334a9.983 9.983 0 01-2.763-1.143c-2.095-1.238-3.952-2-6.429-1.952-.762-.524-2.191.143-2.048 1.428.572 3.953 1.953 7.763 2.953 11.62.81 3.049 1.143 6.764 2.953 9.478 2.429 3.572 6.524 3.81 10.525 3.191.714.62 1.333 1.238 1.857 1.953z" fill="#FAB88E"/><path d="M262.075 107.965c-10.049-1.905-20.193-2.571-30.433-2.048-.809.048-.809 1.334 0 1.286a70.477 70.477 0 014.477-.143c-.143.334-.143.667.143 1.096.095.095.143.19.238.286 0 .095 0 .19.048.333.095.429.238.714.381 1.048.19.571.428 1.143.619 1.714.476 2.572 1.19 5.096 1.952 7.573.381 1.428.81 2.857 1.239 4.286 0 .285.047.571.095.857.048.19.19.381.333.476.143.476.334 1 .524 1.477.191.523.667.809 1.143.857.048.095.048.238.095.333.048.524.191 1 .381 1.524.096.238.239.429.381.572l.572 1.286c.238.476.667.619 1.048.619a.764.764 0 00.524.238.67.67 0 00.333.857c1.667-2.095 2.857-4.572 4.381-6.763 1.429-2.048 2.81-4.143 4.334-6.096.572-.714 1.143-1.476 1.715-2.19 1.905-3.096 3.857-6.144 5.619-9.335.096-.047 0-.095-.142-.143z" fill="#F4EEED"/><path d="M264.503 25.432c-.143-1.19-.381-2.381-.81-3.43-1.571-3.857-5.572-3.19-8.953-2.57-3.096-1.382-6.287-1.525-8.811 1.285-6.334-2.476-15.573-1.429-17.573 5.905-.905 3.287-.191 7.668 2.524 9.954 2.524 2.143 6.382 1.667 9.144.19 1 1 2.429 1.572 4.095 1.43 2.572-.239 4.525-2.191 6.906-2.953 3.429-1.096 7.096-.096 9.858 2.047.286 1 .191 2.144.191 3.191 0 .429.047 1.048.667.905.619-.19.857-1.333 1-1.81.143-.571.381-1.762.428-1.762.143-.19.334-.333.619-.333.096 0 .239 0 .334.047l.286-1.428c.095-.143.19-.286.238-.477.476-3.047.571-6.857-.143-10.191z" fill="#262626"/><path d="M299.697 126.348c.429-.333.81-.667 1.191-1.048 3.048-3.238 4-8.048 2.429-12.239-.143-.381-.762-.191-.619.19.19.524.381 1.096.476 1.667-1.143-1.953-4.667-1.619-4.763 1-.381.381-.619.953-.619 1.619 0 .62-.143 1.239-.381 1.81-.524-.095-1.095-.047-1.714.286-2.143 1.095-4.429 1.714-6.858 1.714h-.143c1.333-.952 1.572-3.19.19-4.191 1.524-.428 2.096-2.143 1.667-3.429 1 .096 2.001.191 3.048.286.429.048.381-.619 0-.619a80.55 80.55 0 01-3.381-.333c-.381-.524-1.048-.905-1.953-.858-1.762.096-3.572.048-5.381-.047-3.286-.476-6.62-1.095-9.859-1.953-5.81-1.524-11.572-3.381-17.525-4.429-1.81-.476-3.81-.905-5.62-.762-4.191-.428-8.954-.381-12.287 1.524-.715.429-1.429.953-.619 1.715.333.333 1.285.238 1.666.285h.048c-.524.381-1 .762-1.333 1.048-.905.667-2.286 1.762-1.667 3.048.571 1.238 2.095.953 3.238.857h.143c-.952.667-1.762 1.477-2.286 2.524-.619 1.096-.571 2.477.714 3.048.381.143.81.191 1.286.143-.143.381-.285.81-.333 1.191-.048.476.476.952.952.952 3.144-.142 5.715-2.238 8.716-3 2.476-.619 5.048-.762 7.62-.524.524.095 1.095.191 1.619.334 5.382 1.285 10.049 4.429 15.192 6.381.286.096.572.191.81.286 2.762 1.191 5.572 2.238 8.525 2.715 2 .524 4 .952 5.953 1.238 1.857.286 3.667.238 5.477-.048 2.333-.285 4.524-.952 6.381-2.381 0 .048 0 0 0 0zm-3.095.714l.714-.428h.095c.238-.048.429-.095.619-.191-.476.238-.952.429-1.428.619z" fill="#FAB88E"/><path d="M280.46 101.346c-1.143-4.287-2.239-8.525-3.382-12.811-.095-.381-.666-.19-.571.142 1.143 4.287 2.238 8.525 3.381 12.812.095.428.667.238.572-.143z" fill="#1D2C22"/><path d="M277.791 90.963a5.565 5.565 0 001.334-3.381c0-.381-.572-.381-.572 0a5.032 5.032 0 01-1.143 2.952c-.095.143-.142.286 0 .429.096.095.286.095.381 0zM232.07 92.154c.762-3.858 1.715-7.715 2.763-11.525.095-.381-.477-.524-.572-.143-1.095 3.81-2 7.667-2.762 11.525-.095.381.476.524.571.143z" fill="#1D2C22"/><path d="M244.501 43.148c.238 1.334.428 2.715.666 4.048.048.143.239.239.381.19.191-.047.239-.19.191-.38-.238-1.334-.429-2.715-.667-4.048-.047-.143-.238-.238-.381-.19-.143.094-.238.237-.19.38z" fill="#262626"/><path d="M245.262 47.005c-.572.238-.953.953-.81 1.572.143.619.714 1.095 1.334 1.143.142 0 .285-.143.285-.286 0-.19-.143-.286-.285-.286H245.643c-.048 0-.143-.048-.143-.048-.048-.047-.191-.095-.238-.142-.048-.048-.096-.096-.096-.143l-.095-.096-.047-.047v-.048c0-.047-.048-.095-.048-.19v-.048-.095-.095-.048c0-.048.048-.095.048-.143v-.047s0-.048.047-.048c0-.048.048-.048.048-.095 0 0 .047-.096.047-.048.048-.048.048-.095.096-.095l.047-.048c-.047.048.048-.047.048-.047.048-.048.095-.048.143-.096.143-.047.19-.285.095-.428-.048-.096-.19-.143-.333-.048zM263.838 45.768a5.38 5.38 0 012.333-3.572c.334-.19 0-.715-.285-.524a5.777 5.777 0 00-2.62 3.905c-.047.143.048.334.191.381.143.095.381 0 .381-.19z" fill="#262626"/><path d="M264.553 44.29c.047 0 .143-.047.19-.047.048 0 .048 0 0 0H265.315c-.048 0-.048 0 0 0h.095c.048 0 .143.048.191.048.047 0 .095.048.19.048h.048c-.048 0-.048 0 0 0 .047 0 .047.047.095.047.143.048.333.048.429-.095a.31.31 0 00-.096-.429 2.535 2.535 0 00-1.762-.19.323.323 0 00-.19.38c-.096.191.095.287.238.239zM250.93 42.1c-.048.477.143.953.524 1.239.143.095.333 0 .428-.096.239-.38.334-.857.191-1.333a1.48 1.48 0 00-.286-.62c-.19-.19-.476-.285-.714-.142-.429.238-.381.81-.286 1.238.048.238.143.429.238.667.095.19.238.428.476.524.239.143.572.047.715-.238.095-.19.095-.429.095-.62 0-.238-.048-.476-.143-.714-.095-.238-.19-.476-.381-.619-.19-.19-.476-.286-.714-.095a.767.767 0 00-.286.619c-.048.476.095.952.333 1.333.096.143.191.286.334.334.143.047.333 0 .428-.143.143-.19.239-.429.239-.667a1.424 1.424 0 00-.477-1.19c-.143-.143-.333-.096-.476.047-.238.334-.286.715-.238 1.095a.324.324 0 00.381.191c.143-.048.238-.19.19-.381v-.048-.095-.095-.048c.048-.143.048-.19.143-.333-.143 0-.333.048-.476.048l.143.142s0 .048.048.048c0 0-.048-.048 0 0 0 .048.047.048.047.095 0 .048.048.048.048.096 0 .047 0-.048 0 0v.047c0 .048.047.143.047.19V42.816c0 .047 0-.048 0 0v.047c0 .048 0 .048-.047.096v.047c0-.047 0 0 0 0 0 .048-.048.048-.048.095 0-.047.048-.047.095-.047.048-.048.096-.048.096 0 .047.047.047.047 0 0 0 0 .047.047 0 0l-.048-.048c0-.047-.048-.047-.048-.095s-.047-.048-.047-.095v-.048c-.048-.095 0 0 0-.048-.048-.095-.048-.142-.095-.238 0-.047 0-.095-.048-.095v-.047-.048-.238-.095c0-.048 0 0 0 0v-.048s.048-.095 0-.048v-.047s-.048.047 0 0c.048-.048-.048 0 0 0-.048 0 0 0 0 0h-.048c.048 0 .048 0 0 0-.047-.048 0 0 0 0l.048.047s.048.048 0 0v.096c.048.047.048.095.048.142l.095.19a.434.434 0 01.047.239c.048.143.048.286.048.429v.047s0-.047 0 0v.048c0-.048 0 0 0 0s-.048 0 0 0c-.048 0 0 0 0 0h.095c.048 0 0 0 0 0l-.047-.048-.048-.047s0 .047 0 0c-.048-.048-.048-.048-.048-.096a1.442 1.442 0 01-.19-.38c-.048-.191-.048-.239-.048-.43v-.19-.095c0-.048 0 .048 0 0 0 0 .048-.048 0 0 0 .048 0 0 0 0s-.047.048 0 0h-.047s.047 0 0 0c-.048 0-.048 0 0 0 .047 0 0 0 0 0l.047.048c0 .047 0 0 0 0l.048.047s0 .048.048.048c0 0 .047.048 0 .048a.434.434 0 01.047.238v.047s0 .048 0 0V42.624c0 .095-.047.143-.047.238v.096c0 .047-.048.095-.048.095.143-.048.286-.048.429-.095a.881.881 0 01-.048-.048l-.095-.095a1.085 1.085 0 01-.048-.048c0-.048-.048-.048-.048-.095v-.048c0-.047 0-.095-.047-.095v-.048-.047c0-.143-.048-.334-.191-.381-.143-.19-.333-.095-.333.047zM250.739 40.148l.048-.048.047-.048c.048-.047 0 0 0 0 .048-.047.096-.047.143-.095.048 0 .048-.048.096-.048.047 0-.048 0 0 0h.047c.048 0 .095-.047.143-.047h.048-.048.238c.048 0-.047 0 0 0H251.644c.048 0 .048 0 .095.047.048 0 0 0 0 0s.048 0 .048.048c.143.048.333.048.429-.095a.31.31 0 00-.096-.429 1.387 1.387 0 00-1.667.286.302.302 0 000 .429c0 .095.191.142.286 0zM238.884 44.386c.095.286 0 .62.142.905.096.239.381.477.62.429.381-.048.476-.381.523-.714.048-.334 0-.62-.047-.953-.048-.286-.191-.571-.476-.667-.286-.095-.572.096-.667.334-.143.238-.143.524-.143.81 0 .333.048.666.143.952.095.286.19.571.381.762.238.238.571.286.809.047.239-.19.286-.523.286-.81.048-.285 0-.57-.047-.856-.048-.286-.191-.62-.381-.81-.239-.238-.572-.286-.81-.048-.191.19-.238.572-.238.81 0 .286.047.572.143.857.095.286.238.715.571.81.429.095.572-.381.619-.667.096-.571-.095-1.238-.524-1.62-.142-.142-.381-.094-.476.048-.238.477-.238 1.143.095 1.572.096.143.239.19.429.095a.31.31 0 00.095-.428c-.238-.286-.285-.667-.095-.953-.143 0-.333.048-.476.048.238.19.381.476.381.762 0 .19 0 .286-.048.428 0 .048-.047.096-.047.096v.047s.19 0 .19-.047l-.048-.048c-.047-.047-.047-.095-.095-.143-.19-.333-.238-.714-.19-1.095 0-.048 0-.095.047-.19.048-.048 0-.048 0 0 0 0 .048-.048 0 0 0 0-.047.047 0 0h-.047s0-.048 0 0c.047 0 .047.047.047.047.048.048.096.143.143.238.143.334.191.715.095 1.096 0 .095-.047.142-.047.19l-.048.048h.048s-.048 0 0 0c0 0-.048-.048 0 0l-.048-.048c-.047-.048-.047-.095-.095-.19a3.574 3.574 0 01-.238-1.239c0-.143 0-.285.095-.38l.048-.048h-.048s.048 0 0 0-.048 0 0 0c0-.048 0 0 0 0 .048.047.048.142.095.238 0 .095.048.19.048.333 0 .095 0 .572-.048.572l.048-.048c.048 0 .048 0 0 0h-.048c-.047-.048-.047-.095-.047-.143-.048-.238.047-.476-.048-.714-.048-.143-.19-.238-.381-.19-.143.142-.238.333-.19.475zM238.978 42.91c.047-.048.047-.143.095-.19l-.048.047.143-.143-.047.048c.047-.048.142-.096.19-.143 0 0-.048 0-.048.047.096-.047.143-.047.239-.047h-.096.191a.307.307 0 00.286-.286c0-.19-.143-.286-.286-.286a1.155 1.155 0 00-1.143.667c-.048.095-.048.143-.048.238 0 .048.095.143.143.19.048.048.143.048.238.048.048-.095.143-.143.191-.19zM247.694 53.245a5.126 5.126 0 002.667-2.334c.191-.334-.333-.62-.524-.286-.524.905-1.333 1.667-2.333 2.048-.143.048-.238.19-.191.381.048.143.238.286.381.19zM249.787 53.34c.143-.048.334-.095.476-.19.048 0 .096-.048.096-.048.047 0 .047-.048.095-.095.048-.048.048-.143.048-.239 0-.095-.048-.142-.143-.19-.048-.048-.143-.048-.238-.048-.143.048-.334.096-.477.19-.047 0-.095.048-.095.048-.047 0-.047.048-.095.096-.048.047-.048.143-.048.238s.048.143.143.19a.43.43 0 00.238.048zM248.596 59.865c1.62-.096 3.191-.62 4.62-1.429.333-.19.048-.714-.286-.524-1.333.762-2.81 1.238-4.286 1.334-.429.047-.429.666-.048.619z" fill="#262626"/><path d="M177.873 137.826c11.179 0 20.241-9.872 20.241-22.05s-9.062-22.05-20.241-22.05c-11.178 0-20.24 9.872-20.24 22.05s9.062 22.05 20.24 22.05z" fill="#D15245"/><path d="M198.066 115.775h-40.433v68.628h40.433v-68.628z" fill="#D15245"/><path d="M246.313 132.301v-.142a827.874 827.874 0 01-4.572-14.335c-.524-1.905-1.048-3.81-1.762-5.715a755.048 755.048 0 01-7.477-26.48c.095-.19.047-.524-.238-.476-3.096.19-6.144.381-9.24.524-6.334-.19-12.668.571-18.954 1.048-.81.047-1.667.143-2.477.19-8.382.476-16.811.762-25.098 2.096-.19-.096-.571.047-.476.333 1.095 4.096 2.191 8.191 3.334 12.287.143.857.381 1.667.714 2.477 1.143 4.095 2.381 8.191 3.619 12.287.62 2.619 1.572 5.239 2.286 7.81.096.334.191.619.334.857a727.13 727.13 0 003.524 10.954c0 .048.048.095.095.143 0 .143.096.333.286.333h2.858c.714.096 1.428.048 2.143-.047 7.715-.191 15.382-1.048 23.098-1.81 9.239-.952 18.478-1.429 27.812-1.714.286-.096.381-.477.191-.62z" fill="#fff"/><path d="M212.02 104.965c-.476-.905-1.238-1.62-2.19-1.905-.858-.286-1.858-.286-2.763-.239-1.143.048-2.333.381-3.191 1.191a4.706 4.706 0 00-1.333 2.858c-.238 2.095.905 4.333 2.762 5.286 1.858.952 4.286.667 5.858-.714 1.81-1.572 2.143-4.477.857-6.477-.19-.334-.714 0-.524.285 1.048 1.572.953 3.763-.238 5.239-1.143 1.429-3.191 1.953-4.953 1.381-1.809-.571-3.048-2.381-3.191-4.238-.047-.953.143-1.905.715-2.715.619-.905 1.571-1.381 2.619-1.524.905-.143 1.953-.143 2.81.048 1.048.238 1.762.857 2.238 1.762.191.428.715.095.524-.238z" fill="#1D2C22"/><path d="M214.116 101.679c-1.143.667-2.238 1.333-3.381 2-.334.191-.048.714.285.524 1.143-.667 2.239-1.334 3.382-2 .333-.238.047-.762-.286-.524z" fill="#1D2C22"/><path d="M216.118 102.822c.096-.429 0-1-.381-1.286-.238-.191-.523-.238-.857-.191-.286.048-.571.191-.809.334a.31.31 0 00-.096.428.311.311 0 00.429.096c.095-.048.19-.143.333-.191 0 0 .096-.048.048 0 .048 0 .048 0 .095-.048.048 0 .095-.047.143-.047H215.261 215.404c-.048 0-.048 0 0 0 0 0 .048 0 .048.047h.047c-.047-.047-.047-.047 0 0l.096.096c.047.047 0 0 0 0l.047.047s0 .048.048.048c0 .048 0 .048 0 0l.047.095c0 .048.048.095.048.143 0-.048 0-.048 0 0v.191c0 .047 0-.048 0 0v.047c-.048.143.048.334.191.381-.048.048.095 0 .142-.19z" fill="#1D2C22"/><path d="M200.4 114.68c3.048-1.429 6-3.191 8.715-5.191 1.334-.953 2.572-2 3.81-3.096.619-.571 1.191-1.095 1.81-1.714.524-.524 1.143-1.048 1.381-1.81.143-.381-.476-.524-.572-.143-.285.81-1.095 1.429-1.714 2a25.088 25.088 0 01-1.667 1.524 47.56 47.56 0 01-3.858 3.096 52.667 52.667 0 01-8.239 4.858c-.285.095 0 .619.334.476z" fill="#1D2C22"/><path d="M202.781 109.346c-1.191.905-2.286 1.952-3.144 3.191-.333.476-.762 1-.666 1.619.047.286.19.476.428.619.334.191.715.048 1.048-.095.333-.143.048-.667-.286-.524-.143.048-.476.238-.571 0-.048-.143 0-.381.095-.524.19-.476.619-.905.905-1.333.762-.905 1.571-1.715 2.524-2.429.286-.238-.048-.762-.333-.524zM209.02 99.392l.047-.047-.047.047c.047 0 .047-.047.095-.047 0 0-.048 0-.095.047.047-.047.095-.047.143 0h-.096c.048 0 .096 0 .096.048 0 0-.048 0-.048-.047.048 0 .048.047.095.047l-.047-.047c.047 0 .047.047.095.047l-.048-.047c0 .047.048.047.048.095 0 0 0-.048-.048-.048 0 .048 0 .048.048.095v-.095 0c0 .048 0 .095-.048.095 0 0 0-.047.048-.047 0 .047-.048.047-.048.095l.048-.048-.095.096.047-.048c-.047 0-.047.048-.095.048 0 0 .048 0 .048-.048-.048 0-.048 0-.096.048h.096-.096.096c-.048 0-.048 0-.096-.048 0 0 .048 0 .048.048-.048 0-.048-.048-.095-.048l.047.048-.095-.096.048.048c-.048-.048-.048-.048-.048-.095 0 0 0 .047.048.047v-.142V99.391c0 .048 0 .048-.048.096.048-.048.048-.096.048-.096.047-.142-.048-.333-.238-.333-.143-.047-.334.048-.381.19-.096.239 0 .525.19.715.191.191.476.286.715.143.095-.048.142-.048.238-.143l.143-.143c.095-.095.095-.238.142-.38.048-.239-.142-.477-.333-.62a.73.73 0 00-.762 0 .658.658 0 00-.143.19c0 .048 0 .143.048.239.047.047.095.142.19.142a.146.146 0 00.191 0z" fill="#1D2C22"/><path d="M166.491 184.403l-18.288 10.906c-3.382 2-5.43 5.667-5.43 9.573v1.286h50.578v-21.813h-26.86v.048z" fill="#6899D3"/><path d="M198.686 244.981l-18.288 10.906c-3.381 2-5.429 5.668-5.429 9.573v1.286h50.577v-21.812h-26.86v.047z" fill="#8EB2DE"/><path d="M333.273 87.915a.952.952 0 100-1.904.952.952 0 000 1.904z" fill="#B9D368"/><path d="M130.392 100.345a.857.857 0 10.002-1.714.857.857 0 00-.002 1.714z" fill="#D0A6D7"/><path d="M193.068 21.526a.857.857 0 100-1.713.857.857 0 000 1.713z" fill="#FDC1A6"/><path d="M133.536 114.204a.524.524 0 10-.001-1.047.524.524 0 00.001 1.047zM136.395 99.154a.524.524 0 100-1.048.524.524 0 000 1.048z" fill="#D0A6D7"/><path d="M333.654 95.25a.571.571 0 100-1.143.571.571 0 000 1.142z" fill="#B9D368"/><path d="M137.536 107.346a.524.524 0 10-.001-1.047.524.524 0 00.001 1.047z" fill="#D0A6D7"/><path d="M326.513 79.104a.57.57 0 100-1.142.57.57 0 000 1.142zM331.654 77.342a.571.571 0 100-1.143.571.571 0 000 1.143z" fill="#B9D368"/><path d="M191.4 18.383a.571.571 0 100-1.143.571.571 0 000 1.143z" fill="#FDC1A6"/><path d="M326.511 82.39a.429.429 0 10-.001-.857.429.429 0 00.001.857zM334.085 83.629a.428.428 0 100-.856.428.428 0 000 .856zM336.749 89.916a.429.429 0 100-.858.429.429 0 000 .858z" fill="#B9D368"/><path d="M135.725 110.823a.382.382 0 10-.001-.763.382.382 0 00.001.763zM131.299 96.059a.381.381 0 100-.763.381.381 0 000 .763zM140.729 113.584a.38.38 0 100-.762.38.38 0 000 .762zM133.486 111.918a.38.38 0 10.001-.76.38.38 0 00-.001.76z" fill="#D0A6D7"/><path d="M315.415 61.34a1.572 1.572 0 100-3.143 1.572 1.572 0 000 3.143z" fill="#B9D368"/><path d="M133.679 81.533a1.428 1.428 0 100-2.856 1.428 1.428 0 000 2.856z" fill="#D0A6D7"/><path d="M198.733 6.857a1.428 1.428 0 10.001-2.856 1.428 1.428 0 00-.001 2.856z" fill="#FDC1A6"/><path d="M325.845 57.15a1.572 1.572 0 100-3.145 1.572 1.572 0 000 3.144zM324.989 50.149a.763.763 0 10-.001-1.525.763.763 0 00.001 1.525z" fill="#B9D368"/><path d="M122.535 86.439a.714.714 0 100-1.43.714.714 0 000 1.43zM134.679 77.77a.715.715 0 100-1.429.715.715 0 000 1.43zM128.203 84.486a.714.714 0 100-1.428.714.714 0 000 1.428z" fill="#D0A6D7"/><path d="M205.308 1.429a.714.714 0 100-1.428.714.714 0 000 1.428z" fill="#FDC1A6"/><path d="M323.702 71.818a.667.667 0 100-1.334.667.667 0 000 1.334z" fill="#B9D368"/><path d="M197.115 17.05a.619.619 0 100-1.238.619.619 0 000 1.238z" fill="#FDC1A6"/><path d="M324.703 63.055a1 1 0 100-2 1 1 0 000 2z" fill="#B9D368"/><path d="M131.01 91.534a.905.905 0 100-1.81.905.905 0 000 1.81z" fill="#D0A6D7"/><path d="M204.971 14.954a.905.905 0 100-1.81.905.905 0 000 1.81zM172.017 38.434c-2.095-2.048-2.191-5.477-.143-7.573L190.4 11.764l7.715 7.43-18.526 19.097c-2.047 2.143-5.476 2.19-7.572.143z" fill="#FDC1A6"/><path d="M339.178 104.346c-2.953 1.191-6.334-.238-7.525-3.191l-10.715-26.622 10.715-4.334 10.716 26.622c1.238 2.953-.239 6.334-3.191 7.525z" fill="#B9D368"/><path d="M139.964 122.205a5.248 5.248 0 01-6.572-3.572l-7.525-25.241 10.144-3.048 7.525 25.241c.81 2.81-.762 5.81-3.572 6.62z" fill="#D0A6D7"/><path d="M172.206 38.243c-1.905-1.858-2.048-5.048-.238-7.001l.857-.857 4.858-5c4.572-4.716 9.144-9.478 13.763-14.193 1.143-1.19 2.286-2.334 3.382-3.524h-.429c2.238 2.19 4.477 4.334 6.715 6.524.334.334.667.62.953.953v-.429l-9.144 9.43c-4.144 4.286-8.335 8.572-12.478 12.906-.381.381-.714.762-1.095 1.143-1.953 1.858-5.096 1.953-7.144.048-.286-.238-.714.143-.429.428 1.763 1.667 4.43 2.096 6.573.953.714-.381 1.285-.953 1.857-1.524 1.524-1.572 3.096-3.19 4.62-4.763 4.714-4.857 9.382-9.715 14.096-14.573 1.191-1.238 2.382-2.428 3.572-3.667.096-.095.096-.285 0-.428-2.238-2.191-4.476-4.334-6.715-6.525-.333-.333-.666-.62-.952-.952-.095-.096-.286-.096-.429 0-3.191 3.286-6.382 6.572-9.525 9.858-4.143 4.286-8.286 8.572-12.43 12.81-.476.477-.952.953-1.333 1.477-1.572 2.239-1.239 5.382.714 7.287.238.286.667-.143.381-.381zM339.13 104.012c-2.571 1.048-5.572-.047-6.905-2.476a13.685 13.685 0 01-.619-1.476c-.953-2.334-1.858-4.62-2.81-6.954l-8.001-19.86c-.667-1.666-1.334-3.285-2.001-4.952-.047.143-.142.238-.19.38 3.143-1.237 6.239-2.523 9.382-3.761.476-.19.905-.381 1.381-.524-.143-.048-.238-.143-.381-.19l5.287 13.144c2.428 6 4.81 12.001 7.238 18.002.191.524.429 1 .62 1.524 1.095 2.81-.191 6-3.001 7.143-.333.143-.19.715.143.572 2.381-1 3.953-3.334 3.81-5.906-.048-.904-.333-1.762-.667-2.571-.905-2.191-1.762-4.43-2.667-6.62-2.714-6.763-5.476-13.573-8.191-20.336-.667-1.714-1.381-3.429-2.048-5.096-.048-.143-.19-.285-.381-.19-3.143 1.238-6.239 2.524-9.382 3.762-.476.19-.905.381-1.381.524-.143.048-.286.19-.191.381 1.858 4.62 3.715 9.192 5.572 13.811 2.382 5.953 4.811 11.906 7.192 17.859.286.715.524 1.477.952 2.096 1.572 2.381 4.668 3.381 7.334 2.334.429-.191.286-.762-.095-.62zM139.87 122.062c-2.477.762-5.239-.619-6.096-3.048-.143-.381-.238-.81-.381-1.238-.667-2.191-1.286-4.334-1.953-6.525-1.857-6.286-3.762-12.525-5.62-18.811a250.4 250.4 0 01-1.381-4.668c-.047.143-.143.238-.19.381 2.953-.904 5.905-1.762 8.906-2.667.428-.142.857-.238 1.238-.38-.143-.048-.238-.143-.381-.191 1.238 4.143 2.476 8.334 3.715 12.477 1.714 5.668 3.381 11.383 5.095 17.05l.429 1.429c.714 2.572-.762 5.334-3.381 6.191-.381.095-.191.667.143.572 2.238-.715 3.857-2.715 4-5.096.048-.857-.143-1.619-.381-2.429l-1.857-6.287c-1.905-6.429-3.81-12.81-5.763-19.24l-1.429-4.858c-.047-.142-.19-.238-.381-.19-2.952.905-5.905 1.762-8.905 2.667-.429.143-.858.238-1.239.38-.143.048-.238.191-.19.382 1.286 4.334 2.619 8.668 3.905 13.049 1.667 5.667 3.381 11.287 5.048 16.954.191.715.381 1.429.762 2.096 1.239 2.238 4.001 3.381 6.477 2.619.334-.19.191-.762-.19-.619z" fill="#1D2C22"/><defs><linearGradient id="paint0_linear" x1="258.078" y1="55.639" x2="258.078" y2="131.791" gradientUnits="userSpaceOnUse"><stop offset=".413" stop-color="#6A7C35"/><stop offset="1" stop-color="#4F6B2F"/></linearGradient></defs></svg>